# xmcd CD database file
#
# Track frame offsets:
#	150
#	14330
#	32773
#	52043
#	71578
#	94622
#	110903
#	133472
#	151971
#	174958
#	192946
#	210288
#	232698
#
# Disc length: 3423 seconds
#
# Revision: 4
# Processed by: cddbd v1.5.2PL0 Copyright (c) Steve Scherf et al.
# Submitted via: CDex 1.51
#
DISCID=ab0d5d0d
DTITLE=Pink Turtle - Back Again
DYEAR=2010
DGENRE=Jazz
TTITLE0=Maniac
TTITLE1=Everybody's Got To Learn Sometime
TTITLE2=Money Money Money
TTITLE3=(I Can't Get No) Satisfaction
TTITLE4=Roxanne
TTITLE5=Born To Be Alive
TTITLE6=Black Magic Woman
TTITLE7=Sir Duke
TTITLE8=Fifty Ways To Leave Your Lover
TTITLE9=We Will Rock You
TTITLE10=Nights In White Satin
TTITLE11=Billie Jean
TTITLE12=Hey Jude
EXTD=YEAR: 2010
EXTT0=
EXTT1=
EXTT2=
EXTT3=
EXTT4=
EXTT5=
EXTT6=
EXTT7=
EXTT8=
EXTT9=
EXTT10=
EXTT11=
EXTT12=
PLAYORDER=
